<?xml version="1.0" encoding="utf-8"?>
<!-- Generator: Adobe Illustrator 24.1.1, SVG Export Plug-In . SVG Version: 6.00 Build 0)  -->
<svg version="1.1" id="Layer_1" xmlns="http://www.w3.org/2000/svg" xmlns:xlink="http://www.w3.org/1999/xlink" x="0px" y="0px"
	 viewBox="0 0 159 43" style="enable-background:new 0 0 159 43;" xml:space="preserve">
<style type="text/css">
	.st0{display:none;fill:#261F41;}
	.st1{fill-rule:evenodd;clip-rule:evenodd;fill:#F7C532;}
	.st2{fill:none;}
	.st3{fill:#2D2209;}
	.st4{font-family:'Bauhaus93';}
	.st5{font-size:21px;}
</style>
<desc>Created with Sketch.</desc>
<g id="Artboard">
	<g id="Group-8">
		<g id="Group-3">
			<path id="Starbelly" class="st0" d="M59.8,29.2c1.4,0,2.6-0.2,3.7-0.6c1-0.4,1.9-1,2.5-1.8s0.9-1.7,0.9-2.8c0-1-0.2-1.8-0.6-2.4
				s-1.1-1.1-1.9-1.5c-0.9-0.4-2-0.7-3.4-1c-0.9-0.2-1.6-0.5-2.2-0.7c-0.6-0.2-0.9-0.4-1.2-0.7c-0.2-0.3-0.3-0.6-0.3-1
				c0-0.6,0.2-1,0.7-1.3s1.1-0.4,1.9-0.4c0.8,0,1.4,0.2,1.8,0.5s0.8,0.7,0.9,1.1c0.1,0.2,0.2,0.3,0.3,0.3C62.8,17,63,17,63.1,17l0,0
				h2.7c0.1,0,0.3-0.1,0.4-0.2c0.1-0.1,0.1-0.2,0.1-0.3c0-0.5-0.2-1-0.5-1.5c-0.3-0.5-0.7-1-1.3-1.5c-0.6-0.5-1.2-0.8-2.1-1.1
				c-0.8-0.3-1.8-0.4-2.8-0.4c-1.3,0-2.5,0.2-3.4,0.6c-1,0.4-1.7,1-2.2,1.8c-0.5,0.7-0.8,1.6-0.8,2.6c0,1,0.2,1.8,0.6,2.4
				s1.1,1.2,1.9,1.6c0.8,0.4,1.9,0.7,3.1,1c1,0.2,1.8,0.5,2.4,0.7c0.6,0.2,1,0.4,1.3,0.7c0.3,0.3,0.4,0.6,0.4,1c0,0.6-0.3,1-0.8,1.4
				c-0.5,0.3-1.3,0.5-2.3,0.5c-0.6,0-1.2-0.1-1.6-0.3s-0.8-0.4-1-0.6c-0.2-0.3-0.4-0.5-0.5-0.8c-0.1-0.1-0.2-0.2-0.3-0.3
				c-0.1-0.1-0.3-0.1-0.5-0.1l0,0h-2.6c-0.1,0-0.3,0.1-0.4,0.2s-0.1,0.2-0.1,0.3c0,0.8,0.3,1.6,0.8,2.3s1.3,1.3,2.3,1.8
				S58.3,29.2,59.8,29.2z M77.3,29c0.2,0,0.3-0.1,0.4-0.2c0.1-0.1,0.2-0.3,0.2-0.4l0,0v-1.8c0-0.2-0.1-0.3-0.2-0.4S77.4,26,77.3,26
				l0,0h-1.8c-0.5,0-0.9-0.2-1.1-0.5c-0.2-0.3-0.3-0.8-0.3-1.4l0,0v-4.8h3c0.2,0,0.3-0.1,0.4-0.2s0.2-0.3,0.2-0.4l0,0v-1.6
				c0-0.2-0.1-0.3-0.2-0.4s-0.2-0.2-0.4-0.2l0,0h-3v-4c0-0.2-0.1-0.3-0.2-0.4C73.8,12,73.6,12,73.4,12l0,0h-2.4
				c-0.2,0-0.3,0.1-0.4,0.2c-0.1,0.1-0.2,0.3-0.2,0.4l0,0v4h-1.9c-0.2,0-0.3,0.1-0.4,0.2S68,16.9,68,17.1l0,0v1.6
				c0,0.2,0.1,0.3,0.2,0.4s0.3,0.2,0.4,0.2l0,0h1.9v5c0,1,0.2,1.9,0.5,2.6c0.4,0.7,0.9,1.2,1.6,1.5c0.7,0.3,1.6,0.5,2.5,0.5l0,0
				H77.3z M83.6,29.2c0.7,0,1.2-0.1,1.7-0.2s0.9-0.4,1.3-0.6c0.4-0.3,0.6-0.5,0.8-0.9l0,0v0.9c0,0.2,0.1,0.3,0.2,0.4
				c0.1,0.1,0.2,0.2,0.4,0.2l0,0h2.4c0.2,0,0.3-0.1,0.4-0.2c0.1-0.1,0.2-0.3,0.2-0.4l0,0V21c0-0.7-0.1-1.3-0.3-1.8
				c-0.2-0.6-0.5-1.1-1-1.5c-0.4-0.4-1-0.8-1.7-1s-1.6-0.4-2.6-0.4c-1,0-1.8,0.1-2.5,0.4c-0.7,0.2-1.2,0.5-1.7,0.9
				c-0.4,0.4-0.8,0.7-1,1.1s-0.3,0.7-0.3,1c0,0.1,0,0.3,0.1,0.4s0.2,0.2,0.4,0.2l0,0h2.3c0.2,0,0.4-0.1,0.6-0.3
				c0.2-0.3,0.4-0.6,0.7-0.8s0.7-0.3,1.3-0.3c0.7,0,1.2,0.2,1.5,0.5c0.3,0.3,0.4,0.8,0.4,1.4l0,0v0.4l-3.1,0.5
				c-1.5,0.2-2.7,0.7-3.6,1.3c-0.9,0.7-1.4,1.6-1.4,2.7c0,0.7,0.2,1.3,0.6,1.9c0.4,0.6,0.9,1,1.6,1.3C82,29.1,82.7,29.2,83.6,29.2z
				 M84.6,26.7c-0.3,0-0.7-0.1-1-0.2s-0.5-0.3-0.7-0.5c-0.2-0.2-0.3-0.5-0.3-0.8c0-0.4,0.2-0.8,0.6-1.1c0.4-0.3,1-0.5,1.9-0.6l0,0
				l2.2-0.4v0.4c0,0.7-0.1,1.3-0.4,1.8c-0.2,0.5-0.6,0.8-1,1C85.6,26.6,85.1,26.7,84.6,26.7z M96.9,29c0.2,0,0.3-0.1,0.4-0.2
				c0.1-0.1,0.2-0.3,0.2-0.4l0,0V22c0-0.7,0.2-1.3,0.6-1.7c0.4-0.4,1-0.6,1.7-0.6l0,0h2.1c0.2,0,0.3-0.1,0.4-0.2
				c0.1-0.1,0.2-0.3,0.2-0.4l0,0v-2.1c0-0.2-0.1-0.3-0.2-0.4s-0.2-0.2-0.4-0.2l0,0h-1c-0.8,0-1.4,0.1-2,0.4
				c-0.6,0.3-1.1,0.7-1.5,1.2l0,0v-1c0-0.2-0.1-0.3-0.2-0.4c-0.1-0.1-0.3-0.2-0.4-0.2l0,0h-2.4c-0.2,0-0.3,0.1-0.4,0.2
				c-0.1,0.1-0.2,0.3-0.2,0.4l0,0v11.3c0,0.2,0.1,0.3,0.2,0.4c0.1,0.1,0.2,0.2,0.4,0.2l0,0H96.9z M111.5,29.2c0.8,0,1.6-0.1,2.2-0.4
				c0.6-0.3,1.1-0.6,1.6-1.2c0.4-0.5,0.8-1.1,1-1.8c0.2-0.7,0.4-1.5,0.4-2.3c0-0.3,0-0.6,0-0.8c0-0.2,0-0.5,0-0.8
				c0-0.8-0.1-1.6-0.4-2.3c-0.2-0.7-0.6-1.3-1-1.8c-0.4-0.5-1-0.9-1.6-1.2c-0.6-0.3-1.3-0.4-2.2-0.4c-0.8,0-1.5,0.1-2.1,0.4
				c-0.6,0.3-1.1,0.6-1.5,1.1l0,0v-5.2c0-0.2-0.1-0.3-0.2-0.4c-0.1-0.1-0.2-0.2-0.4-0.2l0,0h-2.5c-0.2,0-0.3,0.1-0.4,0.2
				c-0.1,0.1-0.2,0.3-0.2,0.4l0,0v15.8c0,0.2,0.1,0.3,0.2,0.4c0.1,0.1,0.3,0.2,0.4,0.2l0,0h2.3c0.2,0,0.3-0.1,0.4-0.2
				c0.1-0.1,0.2-0.3,0.2-0.4l0,0v-0.8c0.4,0.5,0.9,0.9,1.5,1.2S110.6,29.2,111.5,29.2z M110.5,26.4c-0.6,0-1.1-0.1-1.4-0.4
				c-0.4-0.3-0.6-0.6-0.8-1c-0.2-0.4-0.3-0.9-0.3-1.3c0-0.3,0-0.6,0-0.9c0-0.3,0-0.6,0-0.9c0-0.4,0.1-0.9,0.3-1.3
				c0.2-0.4,0.5-0.7,0.8-1c0.4-0.3,0.8-0.4,1.4-0.4c0.6,0,1.1,0.1,1.4,0.4s0.6,0.6,0.8,1c0.2,0.4,0.2,0.9,0.3,1.4c0,0.5,0,1,0,1.5
				c0,0.5-0.1,1-0.3,1.4s-0.4,0.8-0.8,1S111.1,26.4,110.5,26.4z M124.8,29.2c0.9,0,1.7-0.1,2.5-0.4c0.7-0.2,1.3-0.5,1.8-0.9
				c0.5-0.4,0.8-0.7,1.1-1.1c0.2-0.4,0.4-0.7,0.4-0.9c0-0.2,0-0.3-0.1-0.4c-0.1-0.1-0.2-0.1-0.4-0.1l0,0h-2.5c-0.2,0-0.3,0-0.4,0.1
				c-0.1,0-0.2,0.1-0.3,0.3c-0.1,0.1-0.2,0.2-0.4,0.4s-0.4,0.3-0.6,0.4c-0.3,0.1-0.6,0.2-1,0.2c-0.5,0-0.9-0.1-1.2-0.4
				c-0.3-0.3-0.6-0.6-0.8-1c-0.2-0.4-0.3-0.9-0.3-1.4l0,0v-0.2h7.8c0.2,0,0.3-0.1,0.4-0.2c0.1-0.1,0.2-0.2,0.2-0.4l0,0v-0.6
				c0-1.2-0.2-2.3-0.7-3.3c-0.5-1-1.1-1.7-2-2.3c-0.9-0.6-2-0.8-3.4-0.8c-1.2,0-2.2,0.2-3.1,0.7c-0.9,0.5-1.6,1.2-2.1,2
				c-0.5,0.9-0.8,1.9-0.8,3.2l0,0v1c0.1,2,0.6,3.4,1.7,4.5C121.5,28.7,123,29.2,124.8,29.2z M127.1,21.6h-4.7v0
				c0-0.6,0.1-1.1,0.3-1.5s0.5-0.8,0.8-1c0.4-0.2,0.8-0.4,1.3-0.4c0.5,0,0.9,0.1,1.3,0.4c0.4,0.2,0.6,0.6,0.8,1S127.1,21,127.1,21.6
				L127.1,21.6L127.1,21.6z M136.3,29c0.2,0,0.3-0.1,0.4-0.2c0.1-0.1,0.2-0.3,0.2-0.4l0,0V12.6c0-0.2-0.1-0.3-0.2-0.4
				c-0.1-0.1-0.2-0.2-0.4-0.2l0,0h-2.4c-0.2,0-0.3,0.1-0.4,0.2c-0.1,0.1-0.2,0.3-0.2,0.4l0,0v15.8c0,0.2,0.1,0.3,0.2,0.4
				c0.1,0.1,0.3,0.2,0.4,0.2l0,0H136.3z M142.9,29c0.2,0,0.3-0.1,0.4-0.2c0.1-0.1,0.2-0.3,0.2-0.4l0,0V12.6c0-0.2-0.1-0.3-0.2-0.4
				c-0.1-0.1-0.2-0.2-0.4-0.2l0,0h-2.4c-0.2,0-0.3,0.1-0.4,0.2c-0.1,0.1-0.2,0.3-0.2,0.4l0,0v15.8c0,0.2,0.1,0.3,0.2,0.4
				c0.1,0.1,0.3,0.2,0.4,0.2l0,0H142.9z M151,33.6c0.2,0,0.4,0,0.5-0.1c0.1-0.1,0.2-0.2,0.2-0.3l0,0l6.8-15.7
				c0.1-0.1,0.1-0.3,0.1-0.3c0-0.1-0.1-0.2-0.2-0.3s-0.2-0.2-0.4-0.2l0,0h-2.3c-0.2,0-0.4,0-0.5,0.1c-0.1,0.1-0.2,0.2-0.2,0.3l0,0
				l-3,7.4l-3-7.4c0-0.1-0.1-0.2-0.2-0.3s-0.2-0.2-0.5-0.2l0,0h-2.3c-0.1,0-0.3,0.1-0.4,0.2c-0.1,0.1-0.2,0.2-0.2,0.4
				c0,0.1,0,0.2,0.1,0.3l0,0l4.6,10.9l-1.9,4.5c0,0.1-0.1,0.1-0.1,0.2c0,0.1,0,0.1,0,0.1c0,0.1,0.1,0.3,0.2,0.4s0.2,0.1,0.3,0.1l0,0
				H151z"/>
			<g id="Oval">
				<g>
					<g id="Combined-Shape">
						<path id="path-1_1_" class="st1" d="M33.8,2.4c0.6,0.7,0.9,1.5,1.1,2.3l5.7,31.9c0.5,2.7-1.3,5.3-4,5.8
							c-0.9,0.2-1.8,0.1-2.6-0.2L3.3,31.1c-2.6-0.9-3.9-3.8-3-6.4c0.3-0.8,0.8-1.6,1.5-2.1L26.7,1.8C28.9,0,32,0.3,33.8,2.4z M28,31
							c-1.7,0-3,1.3-3,3s1.3,3,3,3s3-1.3,3-3S29.7,31,28,31z"/>
					</g>
				</g>
			</g>
			<rect x="45.7" y="12.1" class="st2" width="104.3" height="15.8"/>
			<text transform="matrix(1 0 0 1 45.6963 26.0862)" class="st3 st4 st5">KAITIND</text>
		</g>
	</g>
	<circle id="Oval_1_" class="st1" cx="152" cy="13" r="2"/>
</g>
</svg>
